<svg width="228" height="46" viewBox="0 0 228 46" fill="none" xmlns="http://www.w3.org/2000/svg">
<path fill-rule="evenodd" clip-rule="evenodd" d="M123.719 2.35456V43.6467C123.719 44.9404 122.635 46 121.307 46H112.823C111.493 46 110.414 44.9283 110.414 43.643V2.35456C110.414 1.05348 111.493 0 112.823 0H121.307C122.635 0 123.719 1.05348 123.719 2.35456ZM58.6863 45.9587H29.9154C28.1494 45.9587 25.9571 44.7159 25.0364 43.1952L0.893543 2.78299C-0.0135427 1.27073 0.703232 0.0169949 2.47044 0.0169949H31.2402C33.0135 0.0169949 35.191 1.27073 36.0882 2.79269L39.6647 8.84778C40.5582 10.3697 39.8229 11.6138 38.0692 11.6138H25.5196C23.7487 11.6138 22.9738 12.7401 23.8104 14.1285C24.6347 15.5304 26.3624 16.0899 28.1444 16.0899H40.6274C42.3909 16.0899 44.5758 17.3278 45.4693 18.8352L49.4795 25.5154C50.3767 27.0313 49.6636 28.2571 47.8853 28.2571H35.4456C33.6735 28.2571 32.9567 29.4963 33.8675 31.0037L33.9268 31.1093C34.824 32.5972 37.004 33.8473 38.7761 33.8473H51.6273C53.4044 33.8473 55.5696 35.0829 56.4507 36.6073L60.3188 43.1757C61.1876 44.705 60.477 45.9587 58.6863 45.9587ZM136.134 25.9769V2.35492C136.134 1.05263 137.214 0.000359726 138.54 0.000359726H147.028H171.768C173.092 0.000359726 174.167 1.05263 174.167 2.36099V6.95358C174.167 8.26194 173.092 9.30815 171.768 9.30815L152.407 9.27052C150.806 9.27052 149.522 10.5364 149.522 12.113V13.4966C149.522 15.0683 150.806 16.3342 152.407 16.3342L168.636 16.3136C169.973 16.3136 171.042 17.3852 171.042 18.6814V43.647C171.042 44.9396 169.973 45.9992 168.636 45.9992H136.674C135.377 45.9992 134.283 44.9445 134.283 43.647V36.3443C134.283 35.0565 135.377 33.9946 136.674 33.9946H154.86C156.448 33.9946 157.755 32.7165 157.755 31.1509C157.755 29.5828 156.448 28.2975 154.86 28.2975L138.54 28.3327C137.214 28.3327 136.134 27.2732 136.134 25.9769ZM68.5359 2.35456L77.5993 23.5176C77.8613 23.8939 78.2975 24.1475 78.7906 24.1475C79.4011 24.1475 79.9103 23.7883 80.1352 23.287L87.1361 2.35456C87.6168 1.05348 89.0812 0 90.4097 0H102.166C103.487 0 104.168 1.05348 103.693 2.35456L88.2903 43.643C87.8083 44.9283 86.3291 46 85.0043 46H76.0014C74.6729 46 73.0577 44.9283 72.4324 43.643L51.976 2.35456C51.3272 1.05348 51.8734 0 53.1945 0H64.973C66.2879 0 67.8957 1.05348 68.5359 2.35456ZM203.35 28.3942L212.977 2.35456C213.446 1.05348 214.92 0 216.224 0H225.812C227.136 0 227.823 1.05348 227.351 2.35456L212.152 43.6467C211.674 44.9404 210.207 46 208.886 46H177.815C176.485 46 175.69 44.9404 176.044 43.6467L187.298 2.35456C187.664 1.05348 189.021 0 190.34 0H198.831C200.152 0 200.947 1.05348 200.596 2.35456C200.596 2.35456 193.769 27.9998 193.674 28.3942C193.182 30.4247 194.832 32.7939 197.443 32.7939C200.934 32.7939 202.703 30.2002 203.35 28.3942Z" fill="#231F20"/>
</svg>
